<svg height="600pt" preserveAspectRatio="xMidYMid meet" viewBox="0 0 1146 600" width="1146pt" xmlns="http://www.w3.org/2000/svg"><g transform="matrix(.1 0 0 -.1 0 600)"><path d="m0 3000v-3000h893c866 0 1026 4 979 21-35 13-25 29 18 29 22 0 40 5 40 10 0 6-12 10-27 10-33 0-22 12 25 26 27 9 31 12 15 13-37 2-26 21 11 21 19 0 38 5 41 10 3 6-3 10-15 10-13 0-20 5-18 12 3 7 15 12 29 13 24 0 39 19 16 21-31 3-29 7 6 13 34 5 52 24 27 27s-23 7 8 13c18 3 31 10 30 16-2 5-9 9-15 7-7-2-13 2-13 7s15 11 33 13c17 2 30 8 27 13-2 6-10 9-17 7s-13 2-13 8c0 5 16 10 35 10 40 0 46 16 13 30-21 8-20 9 10 9 31 1 48 21 16 21-8 0-12 5-9 10 4 6 16 10 27 8 12-2 23 3 25 10 3 6-3 12-14 12-15 0-16 2-3 10 8 5 23 7 33 4 11-3 17 0 17 10 0 8-8 17-17 19-10 3-4 5 13 6 36 1 48 24 45 78-2 19 2 33 9 33 6 0 14 8 17 17 4 9 14 25 22 35 19 22 42 160 34 200-3 15-2 56 1 91l7 64 44-1c51-1 63 7 45 30-12 14-10 15 21 9 26-5 39-2 48 9 11 13 11 16-3 16-9 0-16 7-16 15s4 15 10 15 6 9 0 24c-7 18-5 27 8 38 25 21 69 38 97 38 42 0 28 19-57 74-88 57-170 94-259 117-58 15-332 19-381 6l-28-7v115 116l-28-21c-31-23-96-42-117-34-7 3-15 20-18 37-4 27 0 37 28 62 18 17 42 44 54 62 15 23 31 33 54 35 31 3 32 5 38 58 4 30 12 69 19 85 7 17 12 64 11 109-3 105 25 283 98 631 48 233 92 378 176 595 8 19 14 49 15 65 0 17 6 42 14 56 7 14 16 43 20 65 9 46 83 207 129 279 52 81 113 159 158 199 35 32 40 42 35 66-7 37 23 106 63 144 17 17 31 34 31 39 0 15 94 107 111 107 8 0 30 11 49 25s40 25 47 25c8 0 27 10 43 22 55 40 190 35 190-8 0-9 5-12 12-8 7 5 9 2 5-9-3-9-1-18 6-20 9-3 9-8 0-18-10-9-13-10-13-1 0 24-33 11-67-25l-36-38 7 64c6 63 6 64-13 43-10-12-27-22-37-22-15 0-16-2-5-9 7-5 11-13 7-19-3-6 7-35 24-64 16-29 39-72 51-95 22-44 42-55 53-28 9 25 21 17 33-22 22-70 122-348 122-340 1 5-22 81-49 169-37 118-49 170-44 192 6 27 9 23 30-49 12-44 57-172 99-285 100-268 139-378 185-528 33-106 37-129 28-160l-10-36-14 26c-7 14-25 68-38 119-34 123-154 467-155 443-1-7 26-90 60-185 66-190 129-422 129-477 0-20-2-33-5-30-3 2-19 60-35 129-17 68-80 270-140 449s-117 352-126 385c-12 41-19 53-22 38-2-12-10-27-18-34-12-9-13-9-9 2 4 10-2 15-16 16-29 3-34 10-19 28 9 11 17 12 34 3 21-11 21-11 2 11-11 11-25 21-31 21-7 0-16 7-19 16-4 12-15 15-36 12-24-4-33 1-46 20-15 23-15 26 0 34 9 5 16 17 16 28 0 10 6 20 13 23 9 3 9 8-3 22-14 17-15 16-20-6-3-13-10-24-15-25-6 0-20-5-33-10-25-11-30-3 101-172 15-19 27-40 27-47 0-20-41-66-52-59-6 4-8 2-5-4 10-14 46-3 57 18 6 11 17 16 28 13 13-3 21 2 25 16 9 35 34 25 42-16 3-21 53-177 111-348 57-170 113-351 124-401 18-85 18-94 4-123-12-23-14-42-8-69 4-20 7-48 5-62l-2-25 21 23c11 12 30 22 42 22 16 0 19 5 15 21-8 30 35 149 54 149 11 0 19-44 12-69-4-16-3-22 5-17 11 7 47-98 37-113-2-5 2-22 10-37 20-39 20-94 0-94-8 0-15-6-15-14s-6-16-12-19c-26-9 3-19 61-22 39-1 71-9 94-23 24-14 34-16 31-7-3 7-22 20-42 28-59 24-95 63-90 98 3 16 2 29-2 29-3 0-11 14-17 31-12 30-11 31 12 26 14-2 25 0 25 6s12 35 26 65c61 128 187 492 244 705 41 151 13 85-59-141-107-333-191-546-208-528-2 2 17 55 41 118 51 133 160 467 154 474-3 2-22-50-42-117-21-67-58-174-82-238-25-64-57-147-71-186-13-38-28-74-33-79-5-4-51 122-103 280-52 159-138 406-191 548-119 316-160 467-151 547 3 31 15 80 25 110 11 30 20 55 20 56 0 2 5 3 10 3 6 0 10-17 11-37 1-33 2-35 8-13s8 20 14-18c4-24 12-51 17-60s30-68 56-130c41-101 61-127 71-96 2 5-15 38-38 72-43 67-69 130-69 167 0 12 15 51 33 85l32 63v209c0 114 1 208 2 208s9-12 17-27c14-26 14-24 9 42-6 75 11 152 49 230 20 39 144 175 161 175 4 0-9-33-31-72-136-253-141-264-155-340-13-67-13-83 0-125 31-102 73-168 73-115 0 14 4 12 20-8 23-30 25-44 6-37-17 7-21-3-36-82-6-33-6-58-1-65 5-6 11-24 13-41 1-16 8-28 13-25 6 3 9 11 9 18-1 6 3 12 8 12s8-8 6-18c-2-11 3-26 11-36 16-19 12-26-17-29-12 0-18-6-15-14 3-7 0-20-7-27-8-11-8-20-1-35 9-16 8-22-8-31-11-5-27-10-36-10-12 0-15-6-10-21 4-12 7-37 7-56 0-34 1-35 33-29 22 5 36 2 45-8 10-13 15-13 33-1 13 8 56 15 107 16 65 2 93 8 117 23 35 22 39 32 23 56-9 13-13 12-29-7l-19-22-11 27c-17 45-7 75 50 145 50 61 79 107 93 150 10 30 27 18 24-17-1-22 5-42 15-54 9-10 17-23 17-29 0-16 81-137 99-148 25-15 71-27 123-30 26-2 58-11 71-20 14-9 32-13 42-9 12 5 16 4 11-4-7-12 57-49 147-82 60-23 120-70 168-133l33-42-37 34c-20 19-40 31-44 27-4-3-1-28 6-54 36-125 46-311 23-432-7-38-7-62 1-80 11-25 11-24 15 11 2 25 13 46 37 69l34 33 7-27c6-24 0-108-12-176-3-14 0-31 5-39 7-11 25-4 90 35 79 48 96 64 66 64-8 0-15 5-15 11 0 5 5 7 10 4 12-7 12 12 0 40l-9 20-1-20c-1-15-3-16-7-5-4 8-13 20-21 26-12 9-12 13-2 19 7 4 16 2 21-6 6-11 9-10 15 4 10 26 19 13 34-48 14-59 20-63 71-40 44 19 69 42 93 85 25 45 75 116 104 147 26 28 27 41 6 71-8 12-10 22-5 22 6 0 20-18 31-40 26-50 113-109 96-65-3 8 2 18 11 23 14 8 14 10-1 15-14 5-15 11-6 27 13 23 42 26 60 5 14-16 6-35-16-35-8 0-14-4-14-9 0-12 26-32 33-25 3 3 4-7 2-22-1-16 1-39 6-53 9-23 9-23-13-9-13 8-35 18-49 21-22 6-28 3-32-15-3-11 1-37 9-57s11-37 6-39c-6-2-7-13-4-25 5-21 4-21-15 3-11 14-37 57-56 95-41 78-50 60-13-25 13-30 47-109 76-175 126-290 271-665 377-975 119-344 143-426 97-330-22 46-175 476-199 560-14 48-336 845-346 854-16 17-10-9 17-70 126-284 374-935 374-983 0-19-80-252-91-265-4-5-11 4-14 20-19 91-85 307-92 300-3-2 18-83 46-179s51-185 51-197c0-11 4-18 10-15s10 14 10 23c0 25 84 281 93 282 15 0 6-41-36-166-47-139-61-194-49-194 4 0 19 37 34 82 42 132 70 201 78 191 11-11 130-340 130-358 0-8 6-15 14-15 12 0 12 6 3 32-8 21-9 32-1 35 14 5 9 1333-5 1423-11 68-15 147-6 138 3-2 12-54 21-114 12-88 16-242 19-807 2-385 6-701 9-704s5 234 6 527c0 293 2 536 5 539 15 25 65 312 64 369l-2 67-13-100c-12-98-48-262-59-273-12-12-3 68 15 138 11 41 19 84 19 95s-7-2-14-28c-7-27-15-51-18-53-2-2-7 70-11 160-4 116-12 181-25 222-25 79-43 83-35 7 4-42 0-77-14-131-12-40-24-105-28-144-4-45-18-95-35-135-51-111-31-90 30 33l60 119-4-210c-3-150-8-226-19-265-21-74-19-87 4-25l18 50 1-35c1-45-81-338-107-384-11-19-22 24-12 49 14 36 13 42-4 19-12-16-15-16-20-4-3 8-20 56-37 105-17 50-78 206-135 348s-104 265-104 273 4 14 10 14c5 0 12 11 16 24 3 13 21 32 40 42s34 23 34 29c0 5 12 21 25 34 14 13 25 27 25 32 0 14 43 32 80 34 40 1 51 23 25 48-14 15-14 20 9 56 34 53 42 88 22 88-9 0-16-4-16-8s-9-5-19-2c-18 5-18 7-3 32 17 30 9 79-8 51-8-13-10-13-10 1 0 21 28 46 63 55 25 6 28 4 25-12-1-11 8-30 20-42 14-14 21-30 17-40-5-13-2-13 15 3 20 18 27 31 13 22-5-3-9 19-11 49-1 30 2 54 7 54 12 0 26 75 22 115-4 41-18 53-35 30-10-14-17-16-27-9-16 12-93 37-125 40-17 2-20-2-16-26 4-31-16-42-53-29-20 7-96-2-127-16-14-5-18-2-18 13 0 12 5 24 10 27 11 7 4 25-10 25-5 0-15-6-22-13-47-46-128-66-128-32 0 8-4 15-10 15-5 0-9 5-7 11 1 6-4 14-12 17s-12-1-9-9-4-21-15-30c-14-11-17-18-9-23 7-4 12-1 12 9s5 13 12 9c8-5 5-13-10-24-18-15-20-22-12-51 18-62 9-75-13-19-12 30-37 70-55 89s-40 47-47 61c-14 28-10 70 7 70 5 0 6-9 3-20-9-30 4-60 26-60 16 0 18 5 13 28-4 15-11 34-15 43-5 10-9 64-10 120-2 84 2 117 19 168 25 73 25 74 13 67-10-6-21 26-21 62 0 16 5 22 18 20 12-2 17 4 17 23 0 29 30 69 52 69 7 0 16 7 20 16 3 9 13 14 24 11s19-1 19 5 7 8 15 4c10-3 15 1 15 13 0 14 6 17 26 13 16-3 30 1 35 9 7 11 9 11 9 1s5-10 20-2c16 9 20 8 20-5 0-9 4-13 10-10s10 18 10 33c1 25 2 25 14 10 8-11 27-18 49-18 28 0 39 6 57 33 17 25 21 27 17 10-6-26 16-62 27-45 4 6 13 9 20 6 8-3 16 2 19 13 4 16 5 16 6 1 1-19 18-23 40-9 8 5 12 18 8 30-3 12-1 21 4 21 22 0 6 18-33 37-66 33-16 27 55-7 35-16 69-30 74-30 12 0 113-127 113-141 0-5 11-9 25-9 16 0 25 6 25 15 0 8 7 15 15 15 9 0 12 6 9 18-4 11 1 8 15-8 27-32 20-74-20-115-16-17-29-42-30-55 0-14-7 1-15 32-14 60-52 144-60 135-3-2 4-22 15-43 21-40 41-141 41-206 0-47 17-50 23-5 3 17 3-1 2-40-3-66-2-73 15-73 11 0 24-9 31-21 9-18 8-20-8-15-30 9-63-44-73-117-5-34-7-63-5-66 3-2 5 1 5 7 0 19 17 14 23-7 6-25-6-43-25-36-18 7-32-29-43-110-4-27-17-74-31-104-29-65-31-97-5-106 11-3 38-34 60-68 21-34 48-73 60-87 11-14 30-40 43-59 18-27 35-37 83-51 33-9 71-22 85-30 22-12 184-70 186-67 0 1-3 40-6 87-7 83 5 179 29 244 6 15 9 32 5 37-3 5-1 9 4 9s12 14 16 32c3 17 9 28 13 24 4-3 16 17 28 45 25 58 53 91 121 140 26 19 75 60 108 93 49 46 145 111 158 105 2 0 25 2 52 6 45 7 51 12 94 71 26 35 47 62 49 61 1-2-1-16-5-32-6-19-2-47 10-82 9-30 20-71 23-91l5-37-16 34c-8 18-19 53-23 78-15 80-24 60-18-42 4-73 15-133 42-225 33-114 36-133 31-210-3-47-1-114 4-150 9-73 4 274-6 390-9 95 4 68 22-46 8-55 21-112 29-129 30-68 43-125 49-220 4-55 14-163 22-239 11-97 12-142 5-149-8-8-11-7-11 2 0 10-7 82-43 411-3 24-4 18-6-20 0-30 8-144 20-252l21-197-27-118c-15-65-31-123-34-130-3-6-6 96-7 228 0 132-5 244-10 249s-8-71-6-197c3-142 0-213-8-227-9-18-7-34 14-86 22-58 25-62 25-32 1 42 24 147 62 282 33 117 167 526 180 551 19 36 50 123 40 114-15-15-84-195-132-345-23-74-44-137-46-139-7-10-12 10-22 111l-12 107 31 72c17 40 28 74 25 77s-5 0-5-6c0-18-25-14-43 6-15 17-36 82-43 134-1 15-17 74-34 130l-30 103 20 27c11 15 20 33 20 41 0 10 8 13 24 10 13-3 26-1 30 5 7 11 56 3 56-9 0-5 9-9 19-9 11 0 23-5 26-10 9-14 78-13 93 2 7 7 12 19 12 28s9 16 23 17c12 1 32 5 43 7 21 6 21 5 5-39-14-39-14-47-2-54 12-8 10-24-12-103-15-52-27-98-27-103 1-22 29 45 49 118 12 43 48 146 81 230 72 187 85 237 33 138-21-41-44-77-52-79-8-3-11 0-7 6s-2 8-13 5c-16-4-19-1-14 19l5 23-21-25c-11-14-21-19-21-12s9 20 20 29c23 20 27 53 5 53-15 0-14 29 5 145 9 55 8 95-4 113-4 7-2 12 6 12 9 0 9 3-2 10-13 8-13 15 3 58 27 78 24 100-20 119-71 29-78 33-128 68-107 74-113 80-117 108-5 33 4 34 41 6 50-37 166-35 158 3-1 7 12 14 28 18 29 5 30 7 26 55-4 59-9 68-65 94-50 25-129 27-170 6-15-8-36-15-45-15s-22-5-29-12c-8-8-12-8-12-1 0 6-10 11-22 11-13 0-48 5-78 11-79 16-136 5-178-34l-35-32 22-20c21-20 20-53-2-53-17 0 3-15 21-16 58-4 59-4 38-15-48-28 61-40 122-13 62 27 65 29 77 65 25 73 82 28 77-60-2-37 28-101 48-101 5 0 10-7 10-16 0-11-6-13-19-9-26 8-124 9-149 1-27-9-38 11-18 33 21 23 20 31-3 31-11 0-48-23-82-51-57-48-140-86-160-73-19 11-37 61-41 117-5 67 6 76 18 15 7-40 8-36 16 52 5 52 11 143 12 203 2 63 9 113 16 122 6 7 10 28 8 45-3 28 1 33 34 44 21 8 49 11 63 8 15-2 33 2 43 11 9 8 37 18 62 22 71 12 83 19 86 51 3 45 25 124 33 124 18 0 18-15 0-57-10-24-19-58-19-74 0-28 2-29 45-29 50 0 123-15 173-36 18-8 42-14 54-14s41-9 65-21c35-17 43-26 43-48 0-14-8-38-17-51-18-25-19-77-2-95 5-5 9-20 9-33s9-44 21-69c11-25 23-70 26-99 3-30 10-52 17-51 6 1 12-8 14-21 2-15 9-22 20-20 20 4 26 53 10 86-9 17-9 25 1 35 9 9 13 7 17-11 9-32 24-27 24 8 0 43-1 45-22 42-22-4-23 11-2 33 11 11 20 13 26 7 16-16 16-74 1-111-7-18-13-54-13-78 0-38-5-50-35-80-29-29-38-33-50-23-15 13-16 10-30-75-9-57-7-90 13-175l18-75 99 2c67 1 90-1 70-6-16-5-59-9-94-10-54-1-62-3-51-15 6-8 18-12 25-10 22 9 55-15 52-38-4-39 20-29 64 26 24 30 49 55 55 56 5 0 25-32 44-70l34-70 30 29c38 37 75 51 130 51 82 0 197-58 266-134 19-21 52-56 73-78 41-43 49-87 23-137-14-27-13-28 34-69 27-23 60-47 74-53 15-7 33-29 43-53 10-23 40-81 66-131 137-257 156-313 157-480 0-38 7-110 15-159 21-127 48-493 40-546-4-25-15-79-26-122-21-85-24-201-9-343 5-49 12-151 15-225 7-193 8-711 1-718-3-3-6 8-6 24 0 85-145 135-329 114-164-19-201-71-162-232 11-46 25-117 31-158 12-79 38-180 46-180 3 0 3 8-1 19-8 27 42 66 104 81 27 6 54 17 59 23 5 7 15 56 22 110 11 87 15 97 33 97 11 0 29 7 39 17 10 9 32 16 48 16 17 0 30 3 30 7 0 8-7 8 415 14 864 12 1250 16 1817 19l598 2v2448 2448l-467-5c-258-3-1948-8-3758-11-3739-7-3580-6-3597-23-16-16-61-15-77 1-12 12-34 13-623 16-222 1-258 3-258 16 0 8-4 15-10 15-5 0-10-7-10-15 0-12-16-15-77-16-43-1-82 0-88 1-41 11-96 15-107 9-7-5-17 0-26 12-7 10-21 19-30 18-14 0-13-2 3-9 19-7 19-8 2-15-10-4-30-5-46-2s-31 4-34 1c-3-4-26-7-52-9-35-2-43 0-32 9 7 6 22 20 32 31 16 17 18 17 12 3-4-11-2-18 6-18 24 0 33 15 34 53 1 36-10 50-20 25-4-10-6-10-6 0-1 6-10 12-20 12-11 0-22-6-24-12-4-10-6-10-6 0-1 17-21 15-21-3 0-9-9-15-25-15-20 0-25-5-25-25 0-21-5-25-30-25-38 0-39 21-3 55l28 25h-73c-46 0-72-4-72-11 0-8-4-8-13-1-9 8-301 11-980 12h-967zm1997 2928c-3-7-5-2-5 12s2 19 5 13c2-7 2-19 0-25zm143-38c0-5-12-10-26-10s-23 4-19 10c3 6 15 10 26 10 10 0 19-4 19-10zm4130-201c0-31-4-48-10-44-5 3-10 26-10 51 0 24 5 44 10 44 6 0 10-23 10-51zm200 13c0-15-5-34-10-42-7-11-10-2-10 33 0 30 4 46 10 42 6-3 10-18 10-33zm-2620-92c6-11 9-20 7-20s-12 9-22 20-13 20-7 20 16-9 22-20zm155-20c-3-4 5-10 17-13 12-4 19-9 16-12-3-4-19 0-35 9-15 8-22 15-15 16 7 0 10 5 6 12s-3 8 5 4c6-4 9-11 6-16zm2060-31c4-11 4-23 1-27-10-9-39 25-32 37 11 17 24 13 31-10zm-2025-84 24-25-32 16c-18 8-32 20-32 25 0 16 16 10 40-16zm2227-42c-3-10-5-4-5 12 0 17 2 24 5 18 2-7 2-21 0-30zm190-15c-3-7-5-2-5 12s2 19 5 13c2-7 2-19 0-25zm-572-32c9-13 26-58 39-99l23-76-26-10c-14-6-47-13-74-17-26-3-50-10-53-15s-11-9-19-9c-27 0-20 36 17 97 21 35 43 83 49 108 13 51 22 55 44 21zm-1952-7c60-33 157-162 157-210 0-5-36-9-79-8-58 1-86-3-102-15-21-14-24-13-56 14-18 16-46 32-61 36-15 3-46 13-69 21-39 14-41 17-31 37 22 44 82 109 112 122 38 16 100 18 129 3zm-608-189c18-19 17-20-21-17-32 2-41-2-49-20-10-24-25-31-25-13 0 6 7 24 15 40 18 36 53 40 80 10zm2428-22c4-14 1-26-8-30-10-6-11-16-4-41 5-17 9-49 9-69 0-21 8-54 19-73 16-30 20-33 31-20 9 11 9 15 1 15-7 0-10 4-7 9s32 7 64 4c64-5 138 16 136 39-1 10 10 14 40 14 37-1 41-4 47-31 9-41 8-153-1-190-4-16-8-23-9-13-1 20-59 70-72 62-13-7-126 23-152 41-23 16-67 20-67 6 0-5 7-11 15-15 21-8 19-29-6-44-25-16-127-23-135-10-3 4-14 8-24 8-26 0-33 15-20 41 17 31 8 32-46 8-27-12-58-26-70-31-12-6-34-8-50-6-21 2-30-2-32-14-2-10 1-18 7-18s11-4 11-8c0-5-13-7-30-4-30 4-41 26-17 35 6 3 0 6-15 6-16 1-28 2-28 4s-5 29-10 60c-9 45-8 63 4 91 8 20 17 36 19 36 16 0 67-24 67-31 0-5 8-9 18-9 9 0 36-7 59-15 51-18 127-13 152 9 18 16 37 100 32 140-2 11 2 16 8 12 12-8 54 17 45 27-3 3-13 3-22 0-12-4-11-1 3 10 27 22 32 21 38-5zm-2500-100c4 23 14 45 23 49 22 8 29-5 12-24-24-28-29-52-15-73 13-22 37-27 37-9 0 6 9 9 20 6 15-4 25 3 37 24 10 16 21 29 25 29 10 0-2-54-13-58-4-2-5-27-2-55 4-43 2-55-14-70-17-14-25-15-52-6-52 18-101 135-85 206l8 38 6-50 5-50zm657-14c11-57 39-117 40-87 0 9 7 10 26 3 37-14 70-12 88 5 28 28 54 19 63-22 11-58 6-138-12-180-36-82-79-164-88-170-5-3-4 4 2 15 16 29 14 37-6 21-15-12-16-12-10 4 4 10 7 25 7 32 0 8 14 30 30 49 25 28 29 38 21 57-11 29-111 116-111 97-1-8-5-7-14 5-12 15-26 17-91 14-63-2-78 0-85 14-5 9-6 20-2 23 18 18-60-11-125-46-50-27-73-46-73-58 0-10 4-21 9-24s7-15 4-26c-4-14 2-22 23-31 16-6 38-16 49-22 11-5 35-11 55-13 39-3 115-32 107-41-6-6-75 16-95 31-7 5-15 6-19 2-4-3 3-14 16-22 21-15 21-17 4-29-27-20-7-34 73-51 94-19 100-18 118 18 9 17 16 33 16 35 0 1-17 3-37 3-21 0-45 5-53 11-11 7 2 9 45 4 33-4 66-12 73-17 6-6 12-7 12-2s7-4 15-19c17-33 11-51-30-93-43-43-69-49-112-29-28 14-50 16-103 11-96-10-153 17-156 73-1 15-19 44-44 71-64 67-80 99-80 153 0 50 13 84 62 155 17 24 27 50 24 60-12 39 8 44 62 16 62-32 158-39 173-12 5 9 20 19 34 22 14 4 25 12 25 19 0 19 20 36 40 34 13-1 20-17 30-63zm3410-74c0-13-11-13-30 0-12 8-11 10 8 10 12 0 22-4 22-10zm-630-49c0-6-4-13-10-16-5-3-10 1-10 9 0 9 5 16 10 16 6 0 10-4 10-9zm-2922-59c21-15 37-33 35-39-6-18 33-34 64-27 16 4 39 18 52 31 28 30 37 22 44-39 5-52 2-55-28-35-28 19-152 40-208 36-48-4-48-4-46 26 2 25 33 75 46 75 2 0 20-12 41-28zm1572-56c0-8-5-18-12-22s-8-3-4 4 2 12-4 12-8 5-5 10c9 15 25 12 25-4zm75-46c3-5 2-10-4-10-5 0-13 5-16 10-3 6-2 10 4 10 5 0 13-4 16-10zm-145-45c-25-25-50-43-57-41-6 3-17-2-24-10-12-14-14-14-25 1-13 18-36 12-32-8 1-7-2-23-7-37l-9-25-6 25c-6 24-6 24-25 5-11-11-30-34-42-50l-22-30-1 27c0 19 12 36 48 66 49 41 90 66 107 67 6 1 26 9 45 20 29 15 69 30 90 34 2 1-16-19-40-44zm-1460 16c0-3-4-12-9-19-6-10-10-10-21 2-7 9-16 13-21 10s-9-1-9 4 14 9 30 9c17 0 30-3 30-6zm45-11c11-5 14-9 7-9-7-1-10-5-7-11 3-5-2-10-11-10-10 0-14 3-11 7 4 3 2 12-4 20-13 15-4 16 26 3zm1485-22c0-4-6-5-14-2s-16-2-19-13c-4-16-5-15-6 3-1 27 20 49 31 31 4-6 8-15 8-19zm424-44c3-9 4-20 1-24-9-15-35 1-35 21 0 23 25 25 34 3zm36-4c0-11-4-20-10-20-5 0-10 9-10 20s5 20 10 20c6 0 10-9 10-20zm26-7c-10-10-19 5-10 18 6 11 8 11 12 0 2-7 1-15-2-18zm1380-35c-17-9-96 2-96 14 0 6 8 8 19 5 10-2 29 4 42 14 23 17 24 17 36-4 9-17 9-24-1-29zm-206 16c0-8-10-14-25-14-24 0-30 18-11 32 13 9 36-2 36-18zm-253-16c-3-8-6-5-6 6-1 11 2 17 5 13 3-3 4-12 1-19zm37-60c16-11 28-10 21 2-10 17 49-13 63-32 10-14 17-15 36-6 21 9 29 6 60-26 20-20 41-36 46-36 6 0 9-6 8-12-2-9 17-14 67-16 57-2 75 2 95 18 23 18 23 20 5 20-16 0-12 7 20 40 27 27 48 40 66 40 15 0 31 5 34 10 8 13 52 13 60 1 3-6-4-15-15-21-23-12-50-60-50-88 0-31-24-70-53-87-21-12-57-18-121-20-50-2-108-6-128-10-34-7-39-4-85 41-26 27-54 61-62 76-11 22-17 25-32 17-11-5-20-7-20-4-1 3-2 8-3 13-1 4-9 18-19 33-9 14-19 41-23 60-5 30-4 32 7 14 7-11 17-23 23-27zm354 13c31-1 23-25-9-28-30-3-118-4-141-1-20 2-24 24-6 30 11 4 90 3 156-1zm-68-71c21-7 19-8-17-9-23-1-45 4-48 9-7 12 29 12 65 0zm-3800-69c0-6-4-13-10-16-5-3-10 1-10 9 0 9 5 16 10 16 6 0 10-4 10-9zm1369-85c-2-2-15-9-29-15-24-11-24-11-6 3 16 13 49 24 35 12zm38-2c-3-3-12-4-19-1-8 3-5 6 6 6 11 1 17-2 13-5zm2947-49c2-7 1-17-3-24-5-8-11-4-18 12-9 19-8 24 3 24 7 0 15-6 18-12zm-3066-29c2-28-16-36-63-26-16 4-57 1-90-6-33-6-61-10-63-9-7 6 23 44 43 54 11 5 54 10 95 10 73 1 76 0 78-23zm2397-16c3-5 1-10-4-10-6 0-11 5-11 10 0 6 2 10 4 10 3 0 8-4 11-10zm15-37c0-8-5-13-12-11-18 6-21 25-3 25 8 0 15-7 15-14zm4158-41c3-38-20-178-32-189-27-28-28 112 0 174 8 17 11 39 7 48-4 13-2 16 8 13 8-3 15-21 17-46zm-4654 5c39-19 98-40 131-46 73-16 105-28 105-40 0-13-50-20-74-11-12 4-39 13-61 20s-45 19-50 27c-8 11-17 12-38 4-16-6-27-7-27-1 0 14-59 42-72 34-8-5-9-2-5 10 4 10 7 22 7 27 0 14 7 12 84-24zm516 3c0-5-2-10-4-10-3 0-8 5-11 10-3 6-1 10 4 10 6 0 11-4 11-10zm-3840-76c0-14-4-23-9-20s-7 15-4 26c7 28 13 25 13-6zm3234-13c5-31 12-41 36-51 17-7 29-15 26-17-5-5-72 29-99 51-16 12-16 17-5 35 20 32 35 25 42-18zm-1416 8c2-9-5-15-18-15-11 0-20 5-20 11 0 28 33 31 38 4zm3329-21c-3-8-6-5-6 6-1 11 2 17 5 13 3-3 4-12 1-19zm-950-4c-3-3-12-4-19-1-8 3-5 6 6 6 11 1 17-2 13-5zm-4373-29c-4-8-11-12-16-9-6 4-5 10 3 15 19 12 19 11 13-6zm2887-42c-12-20-14-14-5 12 4 9 9 14 11 11 3-2 0-13-6-23zm1469 17c0-5-4-10-10-10-5 0-10 5-10 10 0 6 5 10 10 10 6 0 10-4 10-10zm3579-49c17-11 54-545 39-573-7-15-23-18-106-18-53 0-225-5-382-10-165-6-288-6-293-1-16 16-47 574-33 588 4 4 139 10 299 13 161 3 330 7 377 8s91-2 99-7zm-5352-103c15-20 32-87 24-93-5-2-46-6-92-9-77-4-128-10-186-22-19-4-23 0-23 21 0 14 5 25 10 25 6 0 10 14 10 31 0 28 1 29 16 15 8-9 21-16 28-16 8 0 19-7 26-15s28-15 46-15c27 0 34 4 34 20 0 13 7 20 20 20 10 0 30 11 42 24 27 29 32 30 45 14zm3161-311c2-10-3-17-12-17-10 0-16 9-16 21 0 24 23 21 28-4zm-3889-47c-1-10-2-11-6-2-2 6-8 10-12 7-5-2-6 8-3 23 5 24 6 24 13 7 4-11 8-27 8-35zm3840-41c-16-10-23-4-14 10 3 6 11 8 17 5 6-4 5-9-3-15zm1091-217c0-4-6-14-12-20-7-7-13-20-13-30 0-11-10-18-29-20-35-4-56 12-38 30 7 7 12 20 12 30 0 14 8 18 40 18 22 0 40-4 40-8zm413 1c89-4 127-10 127-18 0-16-68-25-137-18-47 5-58 3-69-12-13-17-19-18-81-6-47 9-69 9-71 2-2-6-32-11-72-11-62 0-68 2-63 19 3 10 0 22-6 25-6 4-11 11-11 17 0 11 196 12 383 2zm-1133-27c0-3-4-8-10-11-5-3-10-1-10 4 0 6 5 11 10 11 6 0 10-2 10-4zm428-70 3-48 32 5c84 15 258 18 405 7 268-19 376-58 446-164 19-29 51-67 70-83 19-17 39-40 45-51 7-14 11-116 11-299 0-177 6-332 16-428 18-177 19-198 40-503 16-250 15-262-31-262-36 0-47 24-57 123-11 120-16 137-33 137-8 0-19 9-25 20-9 17-17 20-46 14l-34-6 6 88c3 49 10 103 16 121 8 29 12 32 39 26 30-6 30-5 25 28-4 19-15 87-26 152-31 193-52 211-225 195-55-5-207-6-340-2-132 3-255 6-274 5-71-3-85-36-116-273-24-182-59-444-75-552-7-52-28-76-66-76-13 0-29 6-37 14-16 17-15 69 9 613 12 280 13 380 4 548-7 114-15 218-19 232l-7 25-190-1-191-2-6 38c-4 21-7 68-7 104 0 37-5 113-11 169-5 57-6 107-2 111 9 9 443 27 578 25l70-1zm-6016-298c-5-5-9 5-10 24 0 31 1 31 9 9 6-14 6-28 1-33zm174-34c-4-9-9-15-11-12-3 3-3 13 1 22s9 15 11 12c3-3 3-13-1-22zm2106-602-7-143-50 144-49 144 48 154c26 85 51 161 54 169 10 22 13-304 4-468zm-2094 426c-7-19-38-22-38-4 0 10 9 16 21 16s19-5 17-12zm6282-717c3-4 21-17 41-29 19-12 44-31 55-43 10-12 40-32 67-45 49-25 52-30 39-52-7-9-15-10-35-3-38 15-168 102-174 116-2 7-23 18-46 24-53 14-71 26-62 41 7 12 105 5 115-9zm288-94c14-98 16-367 3-367-30 0-56 279-36 380 4 19 7 43 8 53 3 40 14 12 25-66zm712-61c0-21-58-39-75-23-10 10-5 14 29 24 22 6 42 11 44 12 1 1 2-5 2-13zm-9366-21c8-8 23-15 34-15 19 0 52-38 52-59 0-17-38-23-76-12-21 6-45 6-59 1-17-6-27-5-36 6s-6 22 15 54c28 43 46 49 70 25zm9153-41c-3-3-12-4-19-1-8 3-5 6 6 6 11 1 17-2 13-5z"/><path d="m4046 4684c-9-24-2-26 12-4 7 11 8 20 3 20s-12-7-15-16z"/><path d="m7210 4410c0-5 7-10 15-10s15 5 15 10c0 6-7 10-15 10s-15-4-15-10z"/><path d="m9751 2928c0-49 3-88 7-88s6 33 4 73c-5 107-10 114-11 15z"/><path d="m9842 2940c0-41 4-86 8-100 7-20 8-17 8 20 0 25-3 70-8 100l-7 55z"/><path d="m9663 2960c0-25 2-35 4-22 2 12 2 32 0 45-2 12-4 2-4-23z"/><path d="m9932 2945c0-33 3-80 7-105l8-45 1 50c0 28-3 75-8 105l-7 55z"/><path d="m10123 2909c-19-12-43-43-60-77-27-54-28-64-28-197 0-78 6-170 14-207l13-68h37c79 1 232 27 247 42 11 11 18 50 24 144 12 169 7 195-44 252-130 145-141 151-203 111z"/><path d="m9662 2880c0-19 2-27 5-17 2 9 2 25 0 35-3 9-5 1-5-18z"/><path d="m9465 2780c-3-5-35-10-70-10-41 0-65-4-68-12-4-12 4-137 19-278 6-53 12-70 36-93 26-27 33-29 75-23 26 3 49 9 52 12 12 11 6 359-6 387-13 28-27 35-38 17z"/><path d="m9942 2630c0-30 4-82 8-115 7-60 7-60 7 25 1 47-3 99-7 115-6 25-8 20-8-25z"/><path d="m9675 2339c51-15 145-23 145-11 0 15-37 22-110 21-54-1-60-2-35-10z"/><path d="m2350 5985c0-8 5-26 12-40 9-20 17-25 32-21 12 3 24 6 29 6 4 0 7 7 7 16 0 12-6 15-21 11s-23 1-31 19c-12 27-28 32-28 9z"/><path d="m2284 5969c-10-17 13-36 27-22 12 12 4 33-11 33-5 0-12-5-16-11z"/><path d="m2460 5950c0-5 5-10 10-10 6 0 10 5 10 10 0 6-4 10-10 10-5 0-10-4-10-10z"/><path d="m2776 5951c-3-5 1-11 9-15 9-3 15 0 15 9 0 16-16 20-24 6z"/><path d="m2576 5915c-7-18 10-20 18-2 5 10 7 10 12 0 3-7 10-13 16-13s6 6-2 15c-7 8-18 15-25 15s-15-7-19-15z"/><path d="m2490 5906c0-2 7-7 16-10 8-3 12-2 9 4-6 10-25 14-25 6z"/><path d="m3904 4282c0-26-13-81-27-123-25-71-29-96-26-171 1-15-15-60-34-100s-56-127-82-193-58-141-71-167-24-59-24-73-6-38-14-53c-7-15-25-63-40-107s-30-87-33-95-31 62-63 155c-32 94-94 269-140 390-93 249-154 450-146 481 4 14 0 24-9 28-9 3-15 0-15-8 0-37 78-287 145-467 126-335 285-811 285-851 0-9 5-20 10-23 17-10 11 25-17 111l-26 81 32 89c82 226 131 368 127 371-2 2-15-26-29-64-51-135-103-279-117-320-13-42-30-58-30-28 0 41 175 494 320 830 84 193 119 308 45 145-41-90-46-94-29-23 18 76 29 219 18 226-5 3-9-16-10-41z"/><path d="m3992 4240c0-14 2-19 5-12 2 6 2 18 0 25-3 6-5 1-5-13z"/><path d="m5437 4240c-21-4-50-6-65-4-15 1-32-2-39-7-6-6-55-13-107-16-53-3-96-9-96-14 0-4-8-9-17-11-25-5-46-104-26-124 8-8 23-14 33-14s25-11 34-25c18-28 37-27 136 5l55 18 5 48c7 62 29 78 65 44 14-13 25-29 25-36 0-20 19-27 36-13 13 11 15 10 12-6-2-15 6-22 37-31 76-24 143-12 116 19-10 13-8 18 11 31 12 9 30 16 40 16 11 0 18 7 18 18 0 22-27 62-43 62-7 0-18 10-25 21-12 19-20 21-75 16-34-3-68-2-77 2-8 4-32 4-53 1z"/><path d="m7911 4228c-1-43-19-81-36-74-16 6-21-19-6-28 24-15 65 71 51 106-8 22-9 22-9-4z"/><path d="m2860 4180c0-11 50-90 56-90 3 0-7 23-21 50-25 49-35 60-35 40z"/><path d="m3991 4174c0-11 3-14 6-6 3 7 2 16-1 19-3 4-6-2-5-13z"/><path d="m7493 4043c-69-212-170-558-212-728-42-174-63-315-83-558-8-104-15-152-21-141-17 30 16 366 54 564 35 176 93 396 169 634 5 16 6 25 2 20-12-13-36-77-66-172-14-46-37-106-50-135-64-142-239-726-258-865-4-30-21-30-30 0-5 18-6 15-5-11 2-28 7-36 28-42 26-6 27-5 33 45 4 28 14 82 23 121l16 69 19-69c10-39 21-95 24-125 8-81 21-107 54-112 20-3 27-1 23 9-3 7-1 13 3 13 5 0 9 57 9 127 0 176 29 438 65 585 39 160 41 167 155 551 97 330 125 457 48 220zm-228-650c-23-61-95-472-95-547 0-20-4-36-10-36-5 0-10 14-10 31 0 16-5 61-11 98-11 67-11 70 36 217 54 172 84 254 92 254 3 0 2-8-2-17zm-109-688c8-53-36 77-48 141-6 34-7 70-3 80 7 17 29-76 51-221z"/><path d="m7796 4148c3-4-1-8-9-8-21 0-46-32-29-37 6-3 12-12 12-20 0-9 3-13 7-10 3 4 17-5 30-19 12-14 23-20 23-15 0 18-5 26-12 24-5-2-8 13-8 32 0 24 5 35 14 35 29 0 25 18-4 22-16 2-27 1-24-4z"/><path d="m8030 4141c-13-25-13-34 0-26 16 10 32 45 21 45-6 0-15-9-21-19z"/><path d="m3977 3997c-9-78-17-154-17-168 0-15-12-53-26-85-32-71-84-215-83-229 0-5 17 33 38 86s47 112 59 131c16 26 25 67 36 174 18 169 22 222 15 228-3 3-13-59-22-137z"/><path d="m2792 4052c12-24 53-77 91-117 70-76 80-95 48-95-13 0-18-7-18-25 0-25 0-25 66-20 36 3 70 11 76 17 7 7 2 9-18 6-24-5-28-2-25 16 2 13 12 22 26 24 18 3 21 6 12 17-8 10-18 11-36 5-15-6-24-6-24 0s5 10 10 10c20 0 9 21-17 31-20 7-29 6-35-3-6-10-15-6-33 17-23 28-23 31-9 53 12 18 13 27 5 35-6 6-11 7-11 3 0-5-7-3-14 4-11 8-20 9-33 2-14-8-24-3-51 26l-34 37z"/><path d="m7896 4065c1-13 5-29 9-35 9-15-3-48-18-47-37 1-45-4-40-24 6-20 3-21-22-15-24 6-27 5-16-7 13-16 6-63-11-73-5-3-16 0-25 8-15 11-16 11-8-7 5-11 10-39 13-62 4-38 6-42 39-48 28-5 40-2 57 14 15 14 30 18 51 14 21-3 26-2 16 5-9 7-10 12-2 16 6 4 9 12 6 17s1 6 9 3c9-3 20 3 28 15 7 12 19 21 26 21s10-4 7-10c-9-14 5-12 39 5 20 11 33 12 40 5 5-5 20-10 32-10 26 0 104 40 104 52 0 13-78 4-92-10-16-16-45-15-51 2-6 14 14 36 43 50 8 4 26 14 40 22 23 15 23 15 3 11-12-3-27 1-34 9-15 19-21 18-48-8-21-19-22-23-8-33s12-13-12-28c-15-9-41-15-57-14-23 2-28-2-26-15 2-12-4-18-18-18-11 0-20-6-20-12 0-7-14-21-30-30-28-16-30-16-30 0 1 22 25 54 34 44 4-4 6-2 4 4-1 6 19 31 45 55 36 32 47 49 42 62-4 9-12 17-19 17-15 0-38-38-31-50 8-13-24-46-52-54-32-10-29 4 11 50 44 52 74 109 53 101-8-3-30 3-50 13l-34 18zm-83-276c4-16 3-18-9-8-7 6-11 15-8 20 8 13 11 11 17-12z"/><path d="m2650 4023c0-16 3-38 6-50l6-22 20 22c14 15 21 18 25 9 11-26 33-39 58-34 18 3 24 9 21 19-3 8-6 21-6 29 0 18-47 29-64 15-10-9-17-6-30 14-22 33-36 32-36-2z"/><path d="m6656 3975-48-45-11-103c-7-73-7-120 0-158 10-52 11-51 6 27-8 114 24 234 72 274 16 13 39 50 32 50-2 0-25-20-51-45z"/><path d="m8260 3930c6-11 12-20 13-20 2 0 3 9 4 20 1 12-4 20-13 20-12 0-12-4-4-20z"/><path d="m2797 3924c5-14 3-15-15-5-32 17-37 13-10-8 13-11 37-23 51-26 15-4 27-11 27-17 0-5-6-6-12-2-7 4-3-3 9-15 12-11 27-21 33-21 19 0 10 45-11 59-17 10-19 15-8 21 18 12 12 16-33 24-33 6-37 5-31-10z"/><path d="m2681 3909c-1-9-8-22-16-29-18-15-20-40-2-40 21 0 38 37 27 62-6 15-9 18-9 7z"/><path d="m3850 3845c-17-43-30-79-28-81 3-2 19 31 36 73 18 42 30 78 28 80s-18-30-36-72z"/><path d="m2600 3901c1-8 26-41 32-41 3 0 3 11 1 23-3 13-11 24-19 24s-14-3-14-6z"/><path d="m7245 3719c-4-6-5-12-2-15 2-3 7 2 10 11 7 17 1 20-8 4z"/><path d="m7220 3669c-7-11-10-23-7-25 2-2 9 7 15 21 14 30 7 33-8 4z"/><path d="m7315 3679c-4-6-5-12-2-15 2-3 7 2 10 11 7 17 1 20-8 4z"/><path d="m3766 3645c-9-26-7-32 5-12 6 10 9 21 6 23-2 3-7-2-11-11z"/><path d="m4563 3595c0-22 2-30 4-17 2 12 2 30 0 40-3 9-5-1-4-23z"/><path d="m7186 3603c-6-14-5-15 5-6 7 7 10 15 7 18s-9-2-12-12z"/><path d="m3746 3595c-9-26-7-32 5-12 6 10 9 21 6 23-2 3-7-2-11-11z"/><path d="m4252 3546c-20-44-16-97 8-103 11-3 20-9 20-13 0-5 21-16 48-26 26-10 51-24 55-32 17-27 129-54 142-33 3 6-7 19-24 29-32 19-30 32 6 51 22 11 22 13 7 36-9 14-20 22-26 19-5-3-12 3-15 15-5 21-23 30-23 11 0-5-27 7-61 26-43 26-69 35-90 32-16-3-30 0-32 5-1 5-8-3-15-17zm107-37c3-11-1-10-19 2-13 9-26 22-29 30-3 11 1 10 19-2 13-9 26-22 29-30zm-46-67c10-2 25 5 33 15 14 17 15 17 12-2-2-13-12-21-30-23-32-4-65 37-52 65 6 14 9 10 13-17 4-23 12-36 24-38zm127-58c0-19-16-18-24 2-11 27-7 37 9 24 8-7 15-19 15-26z"/><path d="m7008 3525c-4-16-9-66-12-110l-5-80 15 70c15 72 17 184 2 120z"/><path d="m2859 3479c-20-29-28-129-9-129 6 0 10 15 10 33 0 17 11 52 25 76 30 51 29 48 9 48-8 0-24-13-35-28z"/><path d="m5841 3444c0-11 3-14 6-6 3 7 2 16-1 19-3 4-6-2-5-13z"/><path d="m5021 3427c-1-24 100-330 106-323 3 2-18 74-45 158-28 84-53 160-56 168-3 11-5 10-5-3z"/><path d="m4998 3404c-12-18 10-92 176-589 90-269 169-508 175-530 28-108 94-306 103-311 18-11 21 5 5 38-8 18-38 110-66 203-28 94-94 296-147 450-159 464-225 664-232 708-4 23-11 37-14 31z"/><path d="m2940 3335c-28-51-32-67-22-77 6-6 12-8 13-2 2 27 9 48 17 53 9 6 34 82 29 87-1 2-18-26-37-61z"/><path d="m4327 3354c6-34 4-36-16-30-61 18-59 18-53-10 3-15 13-29 23-31 23-6 25-19 4-27-18-7-19-28-3-44 8-8 15-9 25 0 21 17 23 6 9-55-16-68-20-74-41-57-13 11-15 9-15-14 0-14 5-35 12-45 16-26-8-112-31-109-13 3-16-8-17-57-4-168-3-216 6-241 6-15 8-36 5-48-5-17-4-18 4-6 6 8 11 30 11 48 0 46 16 72 44 72 21 0 24 5 29 59 4 46 13 72 41 113 19 30 45 86 57 124 15 49 35 85 68 124 25 30 50 57 54 59 16 6 68 61 58 61-21 0-41-13-41-27 0-8-5-11-12-7s-10 4-6-1c5-5-2-13-15-19-12-7-37-34-55-61-17-28-36-51-41-53-14-5-25 20-26 59-1 36-1 37 22 22 25-17 43-10 43 16 0 21-16 37-45 44-11 3-4 5 18 6 24 1 40 7 44 16 8 21-25 55-54 55-12 0-23 5-23 11 0 12-70 89-81 89-4 0-5-16-2-36zm41-195c-18-12-23 34-6 63 13 22 13 22 16-16 2-24-2-42-10-47zm-13-53c-13-10-16-20-11-41 5-19 3-31-6-36-23-15-26-10-18 27 8 35 39 79 48 69 3-3-3-11-13-19zm15-143c0-15-2-16-10-3-9 13-11 13-20 0-5-8-10-21-10-27 0-7-4-13-9-13s-11-8-14-17c-2-11-7-3-12 20-8 39 0 61 14 39 6-10 11-10 21 3 17 20 40 19 40-2zm-90-102c0-5-7-11-15-15-15-5-20 5-8 17 9 10 23 9 23-2zm-26-66c-9-14-19-23-22-20-5 4 26 45 35 45 2 0-4-11-13-25z"/><path d="m4599 3378c-11-61 2-117 21-88 14 22 12 59-5 76-8 9-15 14-16 12z"/><path d="m7715 3313c-6-24-8-26-16-10-12 20-35 21-66 4-16-9-20-16-13-27 5-8 10-52 10-98 0-72 2-83 17-80 12 2 16 15 17 55 1 61 14 71 36 28 8-16 19-33 24-36 4-4 3-8-3-10-7-3-9-12-6-21 6-15 26-17 88-9 4 1 7 10 7 20 0 20-18 31-51 31-10 0-19 5-19 10 0 6 5 10 11 10s9 6 6 14c-4 9 5 19 24 26 30 13 40 40 14 40-9 0-12 6-8 16 5 14 1 16-20 12-23-4-27-2-27 18 0 34-17 38-25 7zm-41-48c-4-8-10-12-15-9-11 6-2 24 11 24 5 0 7-7 4-15zm76-19c0-13-6-26-14-29-11-5-12 0-3 24 14 35 17 36 17 5zm-30-6c0-5-5-10-11-10-5 0-7 5-4 10 3 6 8 10 11 10 2 0 4-4 4-10z"/><path d="m6982 3310c0-14 2-19 5-12 2 6 2 18 0 25-3 6-5 1-5-13z"/><path d="m5821 3274c0-11 3-14 6-6 3 7 2 16-1 19-3 4-6-2-5-13z"/><path d="m6556 3203c-14-49-26-94-26-100 0-24 16-13 28 20 12 34 34 159 28 164-1 2-15-36-30-84z"/><path d="m7587 3283c-3-5-2-15 4-23 5-8 9-31 9-52 0-28-7-42-31-62-43-36-69-35-69 4 0 17 5 30 11 30 7 0 9-10 5-25-6-25-6-26 18-10 31 20 37 37 29 76-4 20-9 27-16 20-5-5-15-7-21-5-14 6-66-84-66-114 0-26 41-34 97-20 59 14 66 27 61 103-4 61-19 98-31 78z"/><path d="m6471 3264c0-11 3-14 6-6 3 7 2 16-1 19-3 4-6-2-5-13z"/><path d="m7938 3246c-9-9-24-16-33-16-37 0-27-73 21-136 12-17 26-44 30-60 6-28 50-84 66-84 10 0-1 29-27 65-45 64-50 81-37 144 7 34 9 68 4 81-8 21-10 21-24 6z"/><path d="m7570 3224c0-8 5-12 10-9 6 4 8 11 5 16-9 14-15 11-15-7z"/><path d="m7680 3126c0-14 5-26 10-26 6 0 10 9 10 19 0 11-4 23-10 26-6 4-10-5-10-19z"/><path d="m6958 3063c0-32-2-71-3-88-2-16 1-46 5-65 6-24 8 2 9 88 1 67-1 122-4 122s-6-26-7-57z"/><path d="m7534 3048c9-12 16-32 16-45 0-17-7-23-34-29-19-3-40-3-46 1-8 5-10-3-8-26 3-32 5-34 37-32l33 1-32-33c-20-21-30-40-27-49 8-20 43-21 51-1 3 8 9 15 14 15 8 0-11-147-23-178-3-10-14-12-30-8-22 6-25 3-25-23 0-19 8-35 22-45 20-14 21-18 9-71-12-52-14-55-39-53-24 3-27-1-30-30-2-22 2-34 12-38 11-4 16-19 16-44 0-45 23-70 48-53 10 6 16 17 14 25-1 8 10 25 24 39l27 24-17-33c-10-19-15-40-12-48 6-15 38-19 50-7 3 4 14 8 23 9 9 2 27 5 39 8 13 4 27 0 34-9 14-17 38-19 59-6 13 8 13 12 1 26-18 21-21 95-4 95 19 0 24 39 7 49-12 6-13 12-4 29 6 11 10 31 8 44-1 14 3 23 12 23 21 0 24 20 6 35-8 7-15 18-15 25s-7 15-15 19c-27 10-16 22 18 18 38-4 62 17 53 46-8 24-52 45-77 37-18-6-18-4-7 21 9 19 10 28 2 31-6 2-20 10-30 18-18 14-18 15 6 34 26 21 40 20 22-1-8-11-2-13 29-10 44 5 59 23 38 48-13 16-63 16-104-1-18-7-18-6-5 8 8 9 33 22 55 29 33 11 40 18 40 38 0 37-51 39-104 6-48-31-66-34-32-6 19 17 21 23 11 35-7 9-18 14-24 12s-19 9-28 25c-13 21-25 28-48 28-30 0-31-1-16-22zm124-129c-42-34-45-44-22-70 15-16 13-21-25-60l-40-42 5 39c14 105 13 104 62 135 59 37 67 37 20-2zm-24-155c-5-20-42-50-50-41-3 2 7 19 22 36 29 35 36 36 28 5zm106-54c0-5-12-10-26-10s-23 4-19 10c3 6 15 10 26 10 10 0 19-4 19-10zm-136-72c-3-7-15-21-28-30l-24-17 3 48c3 68 13 79 36 42 10-17 16-36 13-43zm80-54c10-4 16-18 16-35 0-34-17-39-22-6s-52 31-56-3c-2-20 4-28 30-39 18-8 27-16 20-19-7-2-19 1-27 8-17 14-55 4-55-15 0-11-6-11-30 3-42 24-41 54 2 50 26-2 33 1 36 17 7 36 46 54 86 39zm-159-174c-3-5-11-10-16-10-6 0-7 5-4 10 3 6 11 10 16 10 6 0 7-4 4-10zm150-20c3-5-1-10-9-10s-18 5-21 10c-3 6 1 10 9 10s18-4 21-10zm-41-41c-3-5-10-7-15-3-5 3-7 10-3 15 3 5 10 7 15 3 5-3 7-10 3-15z"/><path d="m5160 2991c0-6 4-13 10-16s7 1 4 9c-7 18-14 21-14 7z"/><path d="m2683 2905c0-22 2-30 4-17 2 12 2 30 0 40-3 9-5-1-4-23z"/><path d="m6016 2924c-11-28-6-81 8-93 8-6 20-26 27-44s20-40 29-49c21-23 69-40 91-33 20 7 26 41 8 47-7 2-7 12 0 31 6 16 11 37 11 48 0 24-35 65-44 50-4-6-17-6-35-1-16 4-31 7-33 5s-9 5-16 15c-9 15-9 20 0 20 17 0 0 13-21 17-11 1-22-4-25-13zm38-70c6-48 8-50 16-14l7 35 2-42c0-24-4-43-9-43-13 0-30 43-30 77s10 24 14-13zm75-90c9-20 9-25 0-22-14 5-32 48-20 48 4 0 13-12 20-26z"/><path d="m8046 2848c3-18 14-68 25-111 22-90 27-142 16-174-8-21-5-23 26-23 20 0 38-6 40-12 3-8 6-5 6 5 1 10-17 71-40 135-22 65-47 138-55 165-17 54-26 62-18 15z"/><path d="m3136 2816c-7-47-2-99 17-153 10-31 27-45 27-23 0 6 5 10 11 10 5 0 8-4 4-9-3-5-1-12 5-16 20-12 10 24-10 38-17 12-23 31-30 102-5 48-11 89-13 92-3 2-8-16-11-41z"/><path d="m5211 2855c1-19 18-51 18-35 0 8-4 22-9 30s-9 11-9 5z"/><path d="m5517 2853c-4-3-7-13-7-22 1-13 3-13 11 2 11 19 8 33-4 20z"/><path d="m2707 2713c13-54 25-107 27-118 6-39 18-80 31-110 8-17 19-60 24-97 6-36 18-82 26-101 20-49 19-79-5-107-11-13-20-26-20-30s-16-15-35-26c-36-19-39-24-35-59 2-22 20-46 20-27 0 17 35 15 51-4 7-8 21-13 32-10 12 3 28-4 41-17 12-12 34-30 49-40 23-15 26-21 17-37-14-25 5-27 19-2 10 16 12 16 25 0 7-10 22-18 33-18 10 0 40-13 66-30 26-16 52-30 57-30 6 0 10-5 10-11 0-5 5-7 10-4 6 3 10 2 10-3s10-12 21-15c17-5 20-12 17-30-5-23-2-25 29-21 23 3 47-3 78-21 25-13 49-25 53-25 20 0-1-25-80-98-172-157-284-310-493-674-21-37-40-66-42-65-11 12-10 87 2 103 23 30 18 42-27 65-38 19-40 23-24 34 14 11 15 17 6 34-6 12-8 21-5 21s1 9-5 21c-9 16-14 18-26 8-11-9-14-9-14 0 0 7-5 9-10 6-6-4-7-13-1-22 4-9 6-34 4-57-3-22 0-68 5-101l10-60-49-81c-27-45-49-88-49-96s-5-19-12-26c-6-6-11-25-10-42 0-17-4-28-9-25-10 7-12-6-10-92 0-36-4-63-9-63-6 0-10-7-10-15s-4-15-10-15c-5 0-10-7-10-15s-11-34-25-59-25-53-25-63c-1-14-4-13-15 7-15 28-47 33-56 10-5-11-9-7-14 13-5 17-14 27-26 27-23 0-23-6-5-124 13-88 14-89 62-132 27-24 59-44 71-44 16 0 23-8 28-30 7-34 46-50 75-32 14 9 22 6 41-14l22-24h1003c945 0 1002 1 1009 18 6 16 7 16 16 0 6-10 19-18 30-18 20 0 20 1 3 29-19 33-29 15 109 209 26 37 66 93 88 124 22 32 45 57 51 55 6-1 14 10 18 25 11 39 43 88 130 201 41 54 84 112 95 129s44 56 74 87 48 48 41 38c-16-21-7-32 17-22 28 13 46 11 51-4 3-10 0-12-12-8-24 9-19-8 10-40 16-17 28-23 31-16 3 8 13 9 33 3 16-4 46-4 67 1s44 9 51 9c16 0 45-67 39-91-3-10 2-24 10-31 13-10 15-9 11 7-2 11 6 38 17 60 16 30 29 41 54 46 42 9 81 29 81 43 1 6 14 27 31 46l29 35 45-24c24-13 51-31 60-41 37-41 83-383 92-683l6-188 31 3 31 3 6 105c10 166 9 359-1 435-18 123-39 187-107 327-37 76-65 139-62 141 2 3 45 26 94 52 50 26 116 65 147 86 32 22 61 39 65 39 16-1 104-187 113-240 31-181 70-463 70-506 0-28 5-66 11-84 9-25 9-67-1-175-13-153-10-185 21-185 14 0 19 7 19 30 0 17-4 30-10 30-29 0 9 171 52 240 27 42 29 43 35 22 5-21 10-23 68-20 47 2 66-2 79-14 17-17 22-33 8-24-5 3-4-22 1-55 5-32 14-59 18-59 11 0 8-51-4-67-5-7-4-20 3-33 11-21 12-21 27-3 13 16 14 16 9 1-3-10-9-25-12-33s-1-15 5-15 11 8 11 18c1 16 1 16 11 0 8-15 25-18 102-18 126 0 134 3 129 45-2 19 3 48 11 64 13 26 13 31 2 31-8 0-19 8-24 19-9 16-5 20 32 31 23 7 46 13 51 14 6 1-10 12-35 24-40 19-47 28-67 83-12 34-20 65-17 69s-3 7-12 6c-9 0-18 5-20 12-3 8 7 12 31 12 38 0 78-14 115-42 13-10 36-18 51-18s37-9 50-20c32-28 46-25 26 5-9 13-16 30-16 37 0 38-26 95-59 132-20 22-42 53-49 68-6 16-17 28-24 28-9 0-9 3 1 9 12 8 13 12 1 26-7 9-17 57-22 108-13 132-15 146-32 202-9 28-16 65-16 83s-4 31-9 27c-6-3-14 11-20 30-8 29-6 44 11 83 12 26 23 77 26 114 3 40 10 72 18 79 8 6 14 21 14 33 0 33 26 110 38 114 6 2 8 10 5 18s0 14 7 14c6 0 9 3 7 8-4 6 23 7 72 3 7 0 11-7 8-14-4-10 3-12 24-9s29 10 29 24c0 13 6 18 18 16 11-2 19-15 22-42l5-38 23 31c12 17 29 31 37 31 18 0 53 22 128 79l58 44 37-30c20-17 45-44 55-61 58-98 137-434 139-589 1-40 5-73 9-73 5 0 9-5 9-11 0-5-5-7-11-3-9 5-10-71-5-297 6-255 20-600 25-606 0 0 38-2 82-2l82-1-7 68c-3 37-17 146-31 242-97 672-115 808-115 855 0 180-41 313-145 474-48 74-55 101-28 101 9 0 34 12 54 26 21 14 56 28 77 31 29 4 39 9 35 19-3 8 5 18 21 24 14 5 38 15 54 22 15 6 33 10 40 9 6-1 12 2 12 7s37 31 82 57c78 45 82 47 96 29 13-18 14-18 8 2-6 18-2 22 19 21 31 0 44 11 26 22-9 6-5 11 16 16 26 7 26 8 8 15-11 5-14 9-7 9 7 1 10 5 7 11-9 14 17 12 36-3 9-7 31-42 49-79 17-38 36-68 42-68 5 0 8 24 6 53-3 47-5 52-28 55-19 2-33 16-53 52-26 46-27 52-19 138 4 50 6 109 4 131l-4 41-31-30c-17-17-48-35-68-40-21-6-84-41-141-79-56-38-127-79-156-90l-54-21 20 27c11 16 32 39 47 53s36 38 48 54c17 24 9 21-44-20-35-28-84-58-109-68-25-9-62-28-82-42-49-31-58-30-58 6 0 40-19 46-69 22-52-26-53-12-1 29 22 18 37 36 34 40-3 5 1 9 9 9s20 6 26 13c8 11 7 14-7 15-35 2-61-9-67-28-3-11-11-20-16-20-6 0-8 4-4 9 3 5-2 17-11 26-40 40-33 159 15 265 22 48 20 60-4 40-23-19-40-54-70-149-28-86-28-106-1-179 20-54 13-108-24-166-59-92-191-114-285-48-25 17-57 35-73 38-47 11-109 53-131 88-33 52-25 64 14 19 23-27 47-44 75-51 22-5 37-6 34-1s-13 9-22 9-33 12-53 26c-36 25-43 40-64 138-4 20-9 26-14 18-9-15-50-2-70 22-7 9-17 13-22 10s-9 0-9 5c0 6 5 11 10 11 6 0 10 4 10 9s-12 8-27 8c-16 0-22-2-15-4 21-8 13-25-10-21-13 2-22 8-21 14s-4 11-11 11c-10 0-10-10 0-47 7-26 17-85 22-131 6-47 20-118 32-159 19-71 68-283 110-485 10-49 28-157 40-240 11-82 27-193 35-245 17-111 19-194 5-220-7-14 0-57 27-163 21-80 35-148 32-151-3-4-25 1-49 9-23 8-71 15-105 15-77 0-241-41-301-74-31-17-46-21-49-13-2 7-6 53-9 102-11 152-21 232-33 246-6 8-14 30-18 49s-15 51-25 70c-24 45-32 105-13 89 10-9 13-6 13 14 0 14-8 30-17 36-16 8-16 13-4 53 14 45 17 102 8 153-13 71-9 180 11 320 13 83 27 166 32 185s10 55 11 80c3 51-11 231-18 243-10 16-20 5-32-35-37-133-89-222-92-155 0 12-9-7-19-43s-30-93-44-128c-15-34-29-75-31-90s-13-49-24-75c-12-27-21-55-21-62 0-19-52-57-127-93l-63-30 16 30c22 42 29 119 14 163-7 21-30 57-51 80s-42 53-48 67c-14 37-54 44-86 14-14-13-41-27-59-30-19-4-45-15-59-26-23-18-24-24-16-55 15-54-11-131-58-176-54-52-80-63-149-62-47 0-69 6-102 27l-42 26 1-27c0-16 3-22 6-15 7 17 23 15 23-3s-12-19-62-5c-42 12-54 25-39 43 8 10-2 13-42 13-71 0-202 61-236 109-12 19-34 41-48 50-24 16-24 16-13-7 8-16 3-13-17 10-15 18-51 59-80 91-29 31-59 73-67 92-17 40-22 132-12 204l7 50-15-39c-31-82-39-67-40 75 0 8-5 20-12 27-9 8-16 5-28-13-22-34-23-83-3-189 26-135 24-147-28-206-41-46-65-94-52-106 2-3 12 2 21 11 14 14 18 12 45-32 19-31 27-52 21-62-5-9-1-28 11-50 33-66 33-83-2-126l-31-40 8-80c12-106 9-240-5-292-6-23-22-55-35-70-19-24-24-48-34-158-7-71-12-156-12-187 0-88-5-94-53-53-79 68-281 123-570 155-109 12-200 20-202 18-3-2 40-31 95-64 66-39 100-65 100-76 0-10 5-18 10-18 13 0 13-37 0-42-14-4 14-84 28-81 6 1 13-11 17-26 3-16 14-32 23-36 14-5 14-7 2-15-10-7-11-10-2-10 7 0 12-12 12-28v-29l-129-6c-70-3-177-14-237-23-115-17-238-15-414 5-52 6-171 18-265 27-93 9-172 17-174 19-6 6 30 146 49 190 10 22 17 60 17 85s-2 39-4 33c-11-30-21-8-28 55-6 61-4 75 25 147 112 282 381 695 538 823l43 35-11-29c-6-16-22-40-35-54-22-23-47-120-31-120 7 0 29 53 24 58-2 2 12 10 29 19 30 14 39 14 92 1 60-15 109-16 148-3 22 7 23 5 16-26l-6-34 23 20 23 20-5-22c-5-20-2-21 37-20 25 1 41 6 37 12-25 41 8 59 54 29 21-14 24-22 18-53-3-20-12-53-20-73-8-22-10-38-4-38s10-9 10-20c0-22-16-27-22-8-3 7-5-10-4-37 0-27 2-42 4-32 3 14 7 16 17 7 11-9 15-6 20 17 10 44 50 159 96 273 41 104 60 165 97 310 11 41 32 116 47 165 73 242 84 280 81 282-2 2-18-13-37-32s-58-46-86-60c-29-13-53-27-53-30 0-4 7-13 15-21 35-36 1-61-37-27-15 13-22 14-44 4-21-9-39-9-80 0-64 14-82 8-95-31-14-38-34-39-47-1-14 39-46 45-82 15-31-27-49-24-93 14-9 8-20 13-23 9-3-3-21 1-39 9-19 8-45 14-57 14-13 0-35 6-50 14-14 8-43 19-65 26-56 18-144 70-137 81 3 6 1 16-5 23-7 8-10 19-9 26 2 7-3 15-11 18s-11 0-7-7c4-6 3-18-2-27-8-14-13-10-32 20-23 39-40 43-20 6 27-51-10-24-69 50-19 24-20 24-34 6-13-17-15-16-45 20-35 42-41 59-16 50 16-6 44 15 44 33 0 6 7 8 16 4 12-4 9 7-11 48-38 76-63 101-86 88-11-5-19-17-19-25 0-23-23-12-40 20-12 21-12 28-3 34 10 6 1 33-34 105-26 53-50 97-53 97-4 0 4-44 17-97zm4110-485c-2-13-4-5-4 17-1 22 1 32 4 23 2-10 2-28 0-40zm638-178c3-5-1-10-9-10-9 0-16 5-16 10 0 6 4 10 9 10 6 0 13-4 16-10zm-1615-320c0-5-9-10-20-10s-20 5-20 10c0 6 9 10 20 10s20-4 20-10zm-1920-20c0-5-2-10-4-10-3 0-8 5-11 10-3 6-1 10 4 10 6 0 11-4 11-10zm1964-51c14-7 27-17 29-24 3-7-11-4-34 8-54 26-49 40 5 16zm6-39c0-5-2-10-4-10-3 0-8 5-11 10-3 6-1 10 4 10 6 0 11-4 11-10zm-2460-29c0-5-6-14-14-20-12-10-13-8-9 8 5 21 23 30 23 12zm2485-101c3-5 1-10-4-10-6 0-11 5-11 10 0 6 2 10 4 10 3 0 8-4 11-10zm-21-62c-6-21-5-22 11-8 18 14 18 14 1-12-20-31-29-36-19-12 5 14 3 14-16 3-12-8-19-20-16-29 4-8 3-11-1-8-3 4-29-2-56-13-46-18-49-18-46-2 2 12 11 17 28 15 19-1 35 9 65 42 45 49 60 56 49 24zm-504-68c0-5-9-10-20-10s-20 5-20 10c0 6 9 10 20 10s20-4 20-10zm94 1c3-4-5-17-17-29-19-18-24-19-41-7-16 12-17 17-6 30 13 16 55 21 64 6zm-764-16c-1-6-16-19-33-30-32-20-31-10 1 28 16 18 35 19 32 2zm70-49c23-21 34-38 29-43-6-6 2-8 20-5 41 6 48-15 15-49-33-35-26-37 25-7l38 22 65-37c36-20 69-44 72-53 4-10 12-14 22-10 9 3 31-3 50-15 50-30 46-64-11-118-25-23-45-46-45-52 0-5-6-9-12-10-27-2-234-245-417-487l-84-111-14 25c-27 53-14 162 57 459 17 72 39 162 49 200 12 45 17 88 14 120-7 66 11 127 48 170 17 19 33 35 36 35s23-15 43-34zm-147-21c-3-9-8-14-10-11-3 3-2 9 2 15 9 16 15 13 8-4zm-22-52c-12-20-14-14-5 12 4 9 9 14 11 11 3-2 0-13-6-23zm-1896-202c3-5 1-12-5-16-5-3-10 1-10 9 0 18 6 21 15 7zm4992-153c-3-8-6-5-6 6-1 11 2 17 5 13 3-3 4-12 1-19zm42-231c-2-1-12-9-22-16-15-12-17-12-11 3 3 9 13 16 22 16 8 0 13-1 11-3zm1-88c0-14-17-10-23 5-4 10-1 13 9 9 7-3 14-9 14-14zm1-76c13-16 12-17-3-4-17 13-22 21-14 21 2 0 10-8 17-17zm-5094-35c-3-8-6-5-6 6-1 11 2 17 5 13 3-3 4-12 1-19zm5073-15c-11-17-11-17-6 0 3 10 6 24 7 30 0 9 2 9 5 0 3-7 0-20-6-30zm-3247-63c3-36-1-55-25-97-16-29-34-55-40-59-5-4-20-28-33-55-12-27-26-45-30-41-5 4-6 0-3-8 3-9-3-27-14-40-12-14-19-18-18-10 5 30 0 40-20 40-11 0-20 5-20 10 0 6 7 10 15 10s15 5 15 10c0 6-4 10-9 10-16 0-9 63 11 103 12 25 17 48 13 70-6 30-3 33 40 52 25 11 45 24 45 30 0 13 52 35 61 26 4-3 9-26 12-51zm-1828 13c-9-50-9-50-50-51-43-2-44 3-5 23 17 9 30 24 30 34 0 20 8 31 23 31 5 0 6-16 2-37zm5109-41c-4-20 0-34 11-46 10-9 15-19 12-22-9-10-57-12-57-3 0 5 6 9 14 9 15 0 16 16 3 37-4 7-3 22 3 33 15 28 20 25 14-8zm-1081-122c3-11 1-18-4-14-5 3-9 12-9 20 0 20 7 17 13-6zm1069-92c-7-7-12-8-12-2 0 14 12 26 19 19 2-3-1-11-7-17z"/><path d="m4330 103c0-15 18-35 23-27 3 5-1 15-9 22s-14 9-14 5z"/><path d="m3462 2748c-1-16-1-31 1-34 1-4-8-10-19-15-21-7-40-49-22-49 5 0 6-4 3-10-4-6 4-6 22 1 15 6 48 8 73 5 25-2 36-2 25 1-32 9-73 59-78 95-3 29-4 29-5 6zm8-73c-1-5-9-13-19-17-15-5-18-3-14 13 6 20 35 23 33 4z"/><path d="m5246 2748c19-61 43-122 43-112 1 14-40 134-46 134-2 0-1-10 3-22z"/><path d="m3365 2740c3-5 10-10 16-10 5 0 9 5 9 10 0 6-7 10-16 10-8 0-12-4-9-10z"/><path d="m3240 2731c0-5 5-13 10-16 6-3 10-2 10 4 0 5-4 13-10 16-5 3-10 2-10-4z"/><path d="m6050 2707c0-10-5-15-10-12-7 4-8-30-4-100 4-74 2-110-6-120-8-9-9-32-5-68 8-66 0-98-22-90-13 5-14 0-8-28 4-19 11-38 16-43 5-6 9-24 9-41 0-37 22-71 39-61 6 4 9 12 5 17-7 11 22 59 35 59 6 0 5-15 0-35-15-53-5-71 37-72 19-1 43-8 53-17 19-17 51-22 51-7 0 5-6 14-14 20-7 6-11 22-9 35 6 28-27 66-57 66-11 0-20 5-20 11 0 7 7 8 18 4 46-19 54-19 50 6-2 15-14 29-33 38-16 8-34 20-38 28-13 21-27 15-27-10 0-22-17-44-47-61-9-5-13 0-13 13 0 16 6 21 25 21 32 0 32 20 1 49-28 26-25 51 5 44 10-3 19 0 19 6s9 11 20 11c23 0 53-41 48-66-2-9 3-19 10-21 7-3 12 4 12 15s5 22 11 24c8 3 7 8-2 19-20 22-45 68-28 52 18-18 46-16 53 3 8 22-1 34-40 50-22 9-34 21-34 34 0 10-4 22-10 25-20 12-9 20 27 20 55 0 51 27-7 42-40 10-42 11-14 12 70 2 58 61-12 61-24 0-34 5-34 15 0 8-4 15-10 15-5 0-16 12-24 28-11 20-15 22-16 9zm37-119c-2-7 0-21 5-31 9-18-5-47-23-47-13 0-11 64 3 78 15 15 21 15 15 0zm13-98c0-5-4-10-10-10-15 0-12-27 5-44 14-13 13-16-4-26-11-5-22-10-25-10-10 0-7 60 4 81 11 20 30 26 30 9zm80-315c0-9-6-12-15-9-8 4-15 10-15 15s7 9 15 9 15-7 15-15zm-16-30c3-9 0-15-9-15-8 0-15 7-15 15s4 15 9 15 11-7 15-15z"/><path d="m3227 2644c-8-8 1-24 14-24 5 0 9 7 9 15 0 15-12 20-23 9z"/><path d="m4757 2620c-3-11-2-30 1-42 6-23 6-23 13 2 10 36 10 60 0 60-5 0-11-9-14-20z"/><path d="m3372 2623c-21-8-70-87-82-133-6-25-24-71-40-102-33-66-23-80 11-18l23 41 23-46c13-25 26-45 28-45 3 0-4 18-15 40-41 79-19 186 50 244 30 25 31 31 2 19z"/><path d="m3518 2580c-17-13-28-16-35-9-8 8-13 7-17 0-4-6 0-11 9-11 14 0 14-3 0-30-9-16-18-30-21-30s-2 5 1 10c3 6-3 10-14 10-26 0-27 16-4 29 10 5 15 12 12 16-4 3-14-1-23-10s-16-14-16-10c0 3-6 0-14-7s-12-16-9-20c2-5-1-8-7-8s-8-4-5-10c3-5 1-10-4-10-6 0-11-4-11-10 0-19 17-10 28 15 18 40 32 30 26-19-4-27-2-46 5-50 6-4 11-20 11-36 0-15 3-30 8-32 4-1 22-24 39-50 27-40 30-48 15-49-10 0-6-4 11-11 31-11 33-23 11-67-20-41-11-51 20-22 17 16 34 22 59 20 20-2 45 4 61 14 14 10 26 15 26 12s18 4 40 15 40 25 40 30c0 6-13 4-30-5-65-33-189-6-237 53-12 15-27 50-34 77-16 71 1 128 56 182 44 45 46 57 3 23z"/><path d="m3785 2560c4-8 16-27 26-41 10-15 21-48 23-74 6-59 16-72 16-19 0 45-28 112-55 134-17 13-18 13-10 0z"/><path d="m7021 2554c0-11 3-14 6-6 3 7 2 16-1 19-3 4-6-2-5-13z"/><path d="m4217 2547c-11-29-9-53 4-40 6 6 9 21 7 34-3 21-4 22-11 6z"/><path d="m3581 2531c-17-8-31-18-31-22s-7-15-16-24-14-19-11-22 17 8 31 23c27 32 46 26 28-9-9-17-10-82-2-137 0-3 7 6 15 20l14 25 10-25c9-21 11-16 8 33-2 32 1 61 6 64 15 9 37-26 37-58 0-15 3-34 6-43 11-30 20-16 16 27l-4 42 23-20c12-11 19-14 15-7-4 6-2 12 3 12 6 0 11 13 11 28 0 29-19 36-47 19-6-4-17 1-25 11-7 10-26 23-42 29-54 17-38 41 22 34 6-1 12 3 12 8 0 14-41 10-79-8z"/><path d="m3700 2536c0-4 11-18 25-32s25-29 25-34c0-6 5-10 10-10 15 0 12 15-7 36-25 26-53 48-53 40z"/><path d="m6720 2516c0-4 5-14 11-25 9-13 9-23 1-37s-12-15-12-4c0 13-2 13-9 1-10-16 3-51 19-51 5 0 12 20 15 45 6 34 3 48-9 60-9 9-16 14-16 11z"/><path d="m5331 2494c0-11 3-14 6-6 3 7 2 16-1 19-3 4-6-2-5-13z"/><path d="m8047 2496c-4-10-1-13 8-9 8 3 12 9 9 14-7 12-11 11-17-5z"/><path d="m7015 2486c-36-41-38-46-21-46 9 0 16 6 16 14s5 16 12 18c6 2 9 9 7 15-3 8-7 8-14-1z"/><path d="m7180 2491c0-6 5-13 10-16 6-3 10 1 10 9 0 9-4 16-10 16-5 0-10-4-10-9z"/><path d="m6611 2464c0-11 3-14 6-6 3 7 2 16-1 19-3 4-6-2-5-13z"/><path d="m7044 2468c3-10-2-22-12-27-16-10-16-10 0-11 9 0 23-3 32-6 22-8 20 6-5 36-13 16-19 19-15 8z"/><path d="m6622 2400c0-19 2-27 5-17 2 9 2 25 0 35-3 9-5 1-5-18z"/><path d="m7181 2414c0-11 3-14 6-6 3 7 2 16-1 19-3 4-6-2-5-13z"/><path d="m6904 2374c-19-15-19-15 1-6 11 5 27 12 35 15 13 5 13 6-1 6-8 1-24-6-35-15z"/><path d="m6996 2376c23-7 47-16 55-20s3 2-10 13c-13 12-36 21-55 20-30 0-30-1 10-13z"/><path d="m7060 2386c0-2 7-7 16-10 8-3 12-2 9 4-6 10-25 14-25 6z"/><path d="m7145 2370c-3-5-1-10 4-10 6 0 11 5 11 10 0 6-2 10-4 10-3 0-8-4-11-10z"/><path d="m6120 2347c0-8 9-22 20-32 17-16 20-16 20-2s-25 47-36 47c-2 0-4-6-4-13z"/><path d="m6854 2338-19-23 23 19c21 18 27 26 19 26-2 0-12-10-23-22z"/><path d="m6920 2348c0-6-8-20-17-30-14-15-14-21-4-27 10-7 9-16-3-46-19-44-14-55 13-31 21 19 41 14 41-10 0-8 5-12 10-9 14 9 12 42-2 52-7 4-13 22-13 40 0 20 4 28 10 23 5-4 20-11 32-14 18-6 22-4 17 8-3 9-1 16 5 16s11 4 11 9c0 6-16 7-35 4-28-4-35-2-35 11 0 9-7 16-15 16s-15-5-15-12z"/><path d="m3600 2320c0-5 5-10 10-10 6 0 10 5 10 10 0 6-4 10-10 10-5 0-10-4-10-10z"/><path d="m3680 2320c0-5 5-10 11-10 5 0 7 5 4 10-3 6-8 10-11 10-2 0-4-4-4-10z"/><path d="m3210 2310c0-5 5-10 11-10 5 0 7 5 4 10-3 6-8 10-11 10-2 0-4-4-4-10z"/><path d="m3630 2312c0-4 9-8 20-8s20 4 20 8-9 8-20 8-20-4-20-8z"/><path d="m6826 2307c3-10 9-15 12-12s0 11-7 18c-10 9-11 8-5-6z"/><path d="m3195 2280c-3-5-1-10 4-10 6 0 11 5 11 10 0 6-2 10-4 10-3 0-8-4-11-10z"/><path d="m7110 2281c0-5-9-13-20-16s-20-13-20-21 5-12 11-9c6 4 17-1 25-11 14-18 14-17 12 11-1 17 1 36 5 43 5 6 4 12-2 12s-11-4-11-9z"/><path d="m3420 2266c0-2 9-6 20-9s18-1 14 4c-5 9-34 13-34 5z"/><path d="m4702 2258c-16-16-15-39 3-62 14-18 15-16 15 27 0 51-1 52-18 35z"/><path d="m7310 2235c0-9 6-12 15-9 8 4 15 7 15 9s-7 5-15 9c-9 3-15 0-15-9z"/><path d="m7160 2232c0-5 7-17 15-28 8-10 15-32 15-49 0-23 3-27 10-15 5 8 7 31 3 50l-6 35 22-19c24-21 35-18 25 8-5 12-14 16-31 13-13-2-26 0-29 4-7 11-24 12-24 1z"/><path d="m7285 2230c3-5 8-10 11-10 2 0 4 5 4 10 0 6-5 10-11 10-5 0-7-4-4-10z"/><path d="m7073 2193c-3-10-8-22-11-27s0-6 5-3c11 7 25 47 17 47-3 0-7-8-11-17z"/><path d="m7307 2178c2-5 13-8 24-8 10 0 19 3 19 8 0 4-11 7-24 7s-22-3-19-7z"/><path d="m3228 2173c7-3 16-2 19 1 4 3-2 6-13 5-11 0-14-3-6-6z"/><path d="m7112 2155c0-16 2-22 5-12 2 9 2 23 0 30-3 6-5-1-5-18z"/><path d="m4641 2143c7-10 15-20 16-22 2-2 3 3 3 11 0 9-7 19-16 22-15 6-15 4-3-11z"/><path d="m7300 2131c0-6 4-13 10-16s7 1 4 9c-7 18-14 21-14 7z"/><path d="m7290 2062c0-10-6-24-12-32-7-8-1-4 15 9 30 27 34 41 12 41-8 0-15-8-15-18z"/><path d="m7108 2033c12-2 30-2 40 0 9 3-1 5-23 4-22 0-30-2-17-4z"/><path d="m2744 1976c10-45 10-45 29-25 10 11 31 25 45 31l27 11-35 9c-85 22-78 25-66-26z"/><path d="m7190 2000c-11-7-5-8 20-4 43 8 51 14 19 14-13 0-31-5-39-10z"/><path d="m2795 1950c-3-6 1-7 9-4 18 7 21 14 7 14-6 0-13-4-16-10z"/><path d="m8139 1930c-3-34 4-67 31-147 25-78 28-82 33-51 3 18 9 48 13 67 4 21 3 32-3 28-5-3-17 7-27 24-9 16-22 29-27 29-6 0-8 8-5 18 3 9 1 24-4 32-9 13-10 13-11 0z"/><path d="m8096 1850c7-40 24-65 24-34-1 10-7 30-16 44-15 25-15 25-8-10z"/><path d="m2741 1854c0-11 3-14 6-6 3 7 2 16-1 19-3 4-6-2-5-13z"/><path d="m8220 1861c0-6 5-13 10-16 6-3 10 1 10 9 0 9-4 16-10 16-5 0-10-4-10-9z"/><path d="m2772 1817c-28-30-28-49 0-45 25 4 58 68 35 68-8 0-23-10-35-23z"/><path d="m2731 1780c-2-25-2-66-1-92 1-29-3-48-9-48-11 0-16 44-12 105 1 25 0 27-9 12-6-9-15-15-19-13-4 3-9-7-9-22-1-15-3-37-6-49-3-13 3-28 15-39 24-21 24-42 2-74-12-17-18-45-19-85-1-33-4-98-9-145-4-52-3-81 2-75 12 12 56 123 76 190 32 103 36 133 32 203-5 70-2 77 26 74 4-1 9 10 12 23 4 25-6 34-18 15-11-18-43 8-48 37-3 20-5 14-6-17z"/><path d="m5495 1790c3-5 8-10 11-10 2 0 4 5 4 10 0 6-5 10-11 10-5 0-7-4-4-10z"/><path d="m5516 1741c-4-5-2-12 3-15 5-4 12-2 15 3 4 5 2 12-3 15-5 4-12 2-15-3z"/><path d="m5555 1711c-6-5-19-11-30-13-19-4-19-4 1-10 25-7 48 5 43 21-3 7-8 8-14 2z"/><path d="m5289 1693c-13-16-12-17 4-4s21 21 13 21c-2 0-10-8-17-17z"/><path d="m5355 1700c3-5 8-10 11-10 2 0 4 5 4 10 0 6-5 10-11 10-5 0-7-4-4-10z"/><path d="m5337 1674c-10-11-8-36 2-29 5 3 17-2 26-11 15-16 16-15 13 12s-26 43-41 28z"/><path d="m5410 1671c0-5 7-11 15-15 8-3 15-1 15 3 0 5-7 11-15 15-8 3-15 1-15-3z"/><path d="m5484 1659c29-23 47-19 26 6-7 8-22 15-33 15-18 0-17-2 7-21z"/><path d="m2872 1640c0-14 2-19 5-12 2 6 2 18 0 25-3 6-5 1-5-13z"/><path d="m5450 1643c1-5 7-19 15-33 12-22 14-23 20-7 4 9 2 24-5 32-13 16-30 20-30 8z"/><path d="m2860 1600c0-5 5-10 11-10 5 0 7 5 4 10-3 6-8 10-11 10-2 0-4-4-4-10z"/><path d="m5605 1600c-3-5 1-10 10-10s13 5 10 10c-3 6-8 10-10 10s-7-4-10-10z"/><path d="m5340 1584c0-14 3-14 15-4 8 7 15 14 15 16s-7 4-15 4-15-7-15-16z"/><path d="m5380 1591c0-5 5-13 10-16 6-3 10-2 10 4 0 5-4 13-10 16-5 3-10 2-10-4z"/><path d="m5580 1550c0-5 5-10 11-10 5 0 7 5 4 10-3 6-8 10-11 10-2 0-4-4-4-10z"/><path d="m8195 1467c-4-32-5-60-2-63 8-8 20 79 15 102-3 11-8-7-13-39z"/><path d="m5080 1496c0-3 9-10 20-16s20-8 20-6c0 3-9 10-20 16s-20 8-20 6z"/><path d="m5300 1490c0-5 5-10 11-10 5 0 7 5 4 10-3 6-8 10-11 10-2 0-4-4-4-10z"/><path d="m7042 1465c-23-27-27-35-14-35 4 0 16 14 25 30 22 37 18 38-11 5z"/><path d="m5560 1461c0-4-11-7-26-5-20 2-23 0-13-12 8-10 16-11 30-3 17 9 27 29 14 29-3 0-5-4-5-9z"/><path d="m3378 1425c-3-14-1-25 3-25 5 0 9 11 9 25s-2 25-4 25-6-11-8-25z"/><path d="m5455 1420c-3-5-1-10 4-10 6 0 11 5 11 10 0 6-2 10-4 10-3 0-8-4-11-10z"/><path d="m8193 1235c0-44 2-61 4-37 2 23 2 59 0 80-2 20-4 1-4-43z"/><path d="m2712 1258c2-6 26-18 53-26l50-14-29-15c-23-12-34-13-48-4-22 14-23 9-1-32 16-30 18-30 21-10 2 17 14 25 43 33 51 14 50 36-2 50-23 6-53 16-66 21-18 7-24 6-21-3z"/><path d="m3030 1091c-5-11-10-35-10-53 0-58-12-111-21-96-6 9-9 7-9-9 0-15 5-20 18-19 13 2 18 17 24 67 3 35 10 79 13 97 8 36 1 42-15 13z"/><path d="m2957 869c-28-32-40-69-22-69 8 0 15 7 15 15 0 26 23 66 36 61 8-3 16-1 19 4 12 19-31 10-48-11z"/><path d="m2881 694c0-11 3-14 6-6 3 7 2 16-1 19-3 4-6-2-5-13z"/><path d="m2861 629c-8-26-9-45-3-51s12 9 16 38c8 60 3 66-13 13z"/><path d="m10595 618c-77-3-464-9-860-13-1086-9-1194-11-1200-17-3-3 1-57 9-119 8-63 20-162 26-220l13-106 356 4c361 4 1272 10 2078 15l443 3v230 231l-362-1c-200 0-426-3-503-7z"/><path d="m8469 337c-1-23-1-45-1-48 1-3 3-57 5-120s2-97 0-76c-3 25-9 37-20 37-12 0-13 3-5 13 9 10 7 20-6 38-12 17-16 40-14 80 3 45 0 56-13 56-14 0-15-15-9-136 4-75 11-146 15-159 10-26 44-30 57-6 8 15 10 15 15 0 4-9 18-16 32-16h25v109c0 102-1 109-19 104-26-7-45 51-36 110 6 35 4 45-9 50s-16-2-17-36z"/><path d="m8365 325c4-27 11-57 17-65 8-12 9-12 4 3-3 9-2 27 3 40 7 17 4 29-11 47l-21 25z"/><path d="m6542 75c-11-13-22-21-26-18-3 3-6 1-6-6s-5-9-12-5c-8 5-9 2-5-10 4-10 7-22 7-27 0-13 97-11 105 2 10 15-4 61-15 54-6-3-10 1-10 9 0 26-18 27-38 1z"/></g></svg>